<?xml version="1.0" encoding="utf-8" ?>
<svg xmlns="http://www.w3.org/2000/svg" xmlns:xlink="http://www.w3.org/1999/xlink" width="600" height="595.0625" viewBox="0 0 600 595.0625">
	<g opacity="0.1">
		<path d="M192 0C85.9613 0 0 85.9613 0 192L0 192.288C0 298.327 85.6733 384 191.712 384L192 384C298.039 384 384 298.327 384 192.288L384 192C384 85.9613 298.327 0 192.288 0L192 0Z" fill-rule="nonzero" transform="matrix(1 0 0 1 216 0)" fill="rgb(65, 154, 91)"/>
		<path d="M144 0C64.471 0 0 64.471 0 144L0 144.216C0 223.745 64.255 288 143.784 288L144 288C223.529 288 288 223.745 288 144.216L288 144C288 64.471 223.745 0 144.216 0L144 0Z" fill-rule="nonzero" transform="matrix(1 0 0 1 0 312)" fill="rgb(65, 154, 91)"/>
	</g>
</svg>
