<?xml version="1.0" encoding="utf-8" ?>
<svg xmlns="http://www.w3.org/2000/svg" xmlns:xlink="http://www.w3.org/1999/xlink" width="457" height="448" viewBox="0 0 457 448">
	<defs>
		<clipPath id="clipPath2034186569">
			<path d="M0 0L610 0L610 610L0 610L0 0Z" fill-rule="nonzero" transform="matrix(1 0 0 1 -55 -55)"/>
		</clipPath>
	</defs>
	<g clip-path="url(#clipPath2034186569)">
		<path d="M137.25 1Q120.559 1 105.341 5.0763Q90.7416 8.98678 77.707 16.5903Q65.1741 23.9012 54.3114 34.4924Q43.8343 44.7076 35.1446 57.7422Q26.7283 70.3666 20.2173 85.2877Q13.8752 99.8217 9.54436 116.062Q5.2943 132 3.13656 148.992Q1 165.818 1 183Q1 200.182 3.13656 217.008Q5.29429 234 9.54436 249.938Q13.8753 266.179 20.2173 280.712Q26.7282 295.633 35.1446 308.258Q43.8343 321.293 54.3114 331.508Q65.1744 342.099 77.707 349.41Q90.7418 357.013 105.341 360.924Q120.559 365 137.25 365L137.25 367Q120.296 367 104.823 362.856Q89.9655 358.876 76.6993 351.137Q63.9542 343.703 52.9152 332.94Q42.2871 322.578 33.4804 309.367Q24.9659 296.595 18.3842 281.512Q11.9818 266.84 7.61189 250.453Q3.32717 234.385 1.1525 217.26Q-1 200.309 -1 183Q-1 165.691 1.1525 148.74Q3.32717 131.615 7.61189 115.547Q11.9817 99.1603 18.3842 84.4878Q24.966 69.4045 33.4804 56.6328Q42.2872 43.4227 52.9152 33.0604Q63.9539 22.2976 76.6993 14.8628Q89.9655 7.12419 104.823 3.1444Q120.296 -1 137.25 -1L137.25 1Z" fill-rule="nonzero" transform="matrix(1 0 0 1 112.75 67.0001)" fill="rgb(65, 154, 91)"/>
		<path d="M0 -1Q16.9112 -1 32.3438 1.75581Q47.1682 4.40301 60.4093 9.55237Q73.1447 14.505 84.1817 21.6791Q94.8222 28.5955 103.645 37.4179Q112.183 45.9561 118.786 56.0441Q125.213 65.8633 129.6 76.8317Q133.903 87.5897 136.088 99.057Q138.25 110.408 138.25 122Q138.25 133.592 136.088 144.943Q133.904 156.41 129.6 167.168Q125.213 178.136 118.786 187.956Q112.183 198.044 103.645 206.582Q94.8219 215.405 84.1817 222.321Q73.1442 229.495 60.4093 234.448Q47.1683 239.597 32.3438 242.244Q16.9117 245 0 245L0 243Q16.7346 243 31.9922 240.275Q46.6249 237.662 59.6844 232.584Q72.2271 227.706 83.0917 220.644Q93.5562 213.842 102.23 205.168Q110.623 196.776 117.113 186.861Q123.43 177.209 127.743 166.425Q131.975 155.847 134.123 144.569Q136.25 133.403 136.25 122Q136.25 110.597 134.123 99.4313Q131.975 88.153 127.743 77.5745Q123.43 66.7913 117.113 57.1395Q110.623 47.2242 102.23 38.8321Q93.5563 30.158 83.0917 23.356Q72.2275 16.2943 59.6844 11.4164Q46.6248 6.33763 31.9922 3.72466Q16.7341 1 0 1L0 -1Z" fill-rule="nonzero" transform="matrix(1 0 0 1 250 128)" fill="rgb(65, 154, 91)"/>
		<path d="M122 -0.5Q134.525 -0.5 146.688 1.98876Q158.541 4.41437 169.683 9.12686Q180.623 13.7541 190.491 20.4214Q200.268 27.0261 208.621 35.3794Q216.975 43.7335 223.579 53.5087Q230.246 63.3774 234.873 74.3173Q239.586 85.4591 242.011 97.3125Q244.5 109.475 244.5 122Q244.5 134.525 242.011 146.688Q239.586 158.541 234.873 169.683Q230.246 180.623 223.579 190.491Q216.974 200.267 208.621 208.621Q200.267 216.974 190.491 223.579Q180.623 230.246 169.683 234.873Q158.541 239.586 146.687 242.011Q134.525 244.5 122 244.5Q109.475 244.5 97.3125 242.011Q85.4592 239.585 74.3173 234.873Q63.3774 230.246 53.5087 223.579Q43.7335 216.975 35.3794 208.621Q27.0261 200.268 20.4214 190.491Q13.7541 180.623 9.12687 169.683Q4.41438 158.541 1.98877 146.688Q-0.499985 134.525 -0.499985 122Q-0.5 109.475 1.98876 97.3125Q4.41429 85.4592 9.12686 74.3173Q13.7538 63.3781 20.4214 53.5087Q27.0255 43.7333 35.3794 35.3794Q43.7333 27.0256 53.5087 20.4214Q63.3781 13.7538 74.3173 9.12687Q85.4591 4.41429 97.3125 1.98876Q109.475 -0.499992 122 -0.499992L122 -0.5ZM122 0.500008Q109.576 0.500008 97.513 2.96846Q85.7571 5.37404 74.7069 10.0479Q63.8573 14.6369 54.0685 21.25Q44.3726 27.8005 36.0865 36.0865Q27.8005 44.3726 21.25 54.0685Q14.6369 63.8572 10.0479 74.7069Q5.37405 85.7571 2.96846 97.513Q0.5 109.576 0.500015 122Q0.500015 134.424 2.96847 146.487Q5.37413 158.243 10.0479 169.293Q14.6372 180.144 21.25 189.931Q27.801 199.628 36.0865 207.913Q44.3728 216.2 54.0685 222.75Q63.8566 229.363 74.7069 233.952Q85.7571 238.626 97.513 241.032Q109.576 243.5 122 243.5Q134.424 243.5 146.487 241.032Q158.243 238.625 169.293 233.952Q180.144 229.362 189.931 222.75Q199.628 216.199 207.913 207.913Q216.199 199.628 222.75 189.931Q229.362 180.144 233.952 169.293Q238.626 158.243 241.032 146.487Q243.5 134.423 243.5 122Q243.5 109.576 241.032 97.513Q238.626 85.757 233.952 74.7069Q229.363 63.8567 222.75 54.0685Q216.2 44.3729 207.913 36.0865Q199.628 27.8011 189.931 21.25Q180.143 14.6371 169.293 10.0479Q158.243 5.37412 146.487 2.96846Q134.424 0.5 122 0.5L122 0.500008Z" fill-rule="nonzero" transform="matrix(1 0 0 1 128 128)" fill="rgb(65, 154, 91)"/>
		<path d="M183 -0.5Q201.762 -0.5 219.981 3.22806Q237.737 6.86149 254.427 13.9205Q270.814 20.8519 285.597 30.8392Q300.242 40.7328 312.754 53.2459Q325.269 65.7604 335.161 80.4031Q345.149 95.1885 352.079 111.573Q359.138 128.263 362.772 146.019Q366.5 164.235 366.5 183Q366.5 201.765 362.772 219.981Q359.138 237.737 352.079 254.427Q345.149 270.812 335.161 285.597Q325.268 300.241 312.754 312.754Q300.24 325.268 285.597 335.161Q270.812 345.149 254.427 352.08Q237.737 359.138 219.981 362.772Q201.765 366.5 183 366.5Q164.235 366.5 146.019 362.772Q128.263 359.139 111.573 352.079Q95.1885 345.15 80.403 335.161Q65.7605 325.269 53.2459 312.754Q40.7329 300.241 30.8392 285.597Q20.8519 270.814 13.9205 254.427Q6.86148 237.738 3.22806 219.981Q-0.5 201.763 -0.5 183Q-0.5 164.238 3.22806 146.019Q6.86138 128.263 13.9205 111.573Q20.8512 95.1873 30.8392 80.4031Q40.7318 65.76 53.2459 53.2459Q65.76 40.7318 80.403 30.8392Q95.1873 20.8513 111.573 13.9206Q128.263 6.86136 146.019 3.22806Q164.238 -0.5 183 -0.5ZM183 0.5Q164.338 0.5 146.219 4.20776Q128.561 7.82111 111.963 14.8416Q95.6665 21.7344 80.9629 31.6678Q66.3993 41.5067 53.953 53.953Q41.5067 66.3994 31.6678 80.9629Q21.7344 95.6665 14.8415 111.963Q7.82115 128.561 4.20776 146.219Q0.5 164.339 0.5 183Q0.5 201.661 4.20776 219.781Q7.82129 237.439 14.8415 254.037Q21.735 270.335 31.6678 285.037Q41.5078 299.603 53.953 312.047Q66.3999 324.494 80.9629 334.332Q95.6675 344.267 111.963 351.158Q128.561 358.179 146.219 361.792Q164.336 365.5 183 365.5Q201.664 365.5 219.781 361.792Q237.439 358.178 254.037 351.159Q270.334 344.266 285.037 334.332Q299.602 324.492 312.047 312.047Q324.492 299.602 334.332 285.037Q344.266 270.333 351.158 254.037Q358.179 237.439 361.792 219.781Q365.5 201.664 365.5 183Q365.5 164.336 361.792 146.219Q358.179 128.561 351.158 111.963Q344.267 95.6677 334.332 80.9629Q324.493 66.3997 312.047 53.953Q299.603 41.5078 285.037 31.6678Q270.335 21.735 254.037 14.8416Q237.439 7.82124 219.781 4.20776Q201.661 0.5 183 0.5Z" fill-rule="nonzero" transform="matrix(1 0 0 1 67 67.0001)" fill="rgb(65, 154, 91)" opacity="0.5"/>
		<path d="M61 0C94.6894 0 122 27.3106 122 61C122 94.6894 94.6894 122 61 122C27.3106 122 0 94.6894 0 61C0 27.3106 27.3106 0 61 0Z" fill-rule="nonzero" transform="matrix(1 0 0 1 189 189)" fill="rgb(65, 154, 91)" fill-opacity="0.1"/>
		<path d="M9.76 0C15.1503 0 19.52 4.3697 19.52 9.76C19.52 15.1503 15.1503 19.52 9.76 19.52C4.3697 19.52 0 15.1503 0 9.76C0 4.3697 4.3697 0 9.76 0Z" fill-rule="nonzero" transform="matrix(1 0 0 1 118.24 118.24)" fill="rgb(65, 154, 91)"/>
		<path d="M9.76 0C15.1503 0 19.52 4.3697 19.52 9.76C19.52 15.1503 15.1503 19.52 9.76 19.52C4.3697 19.52 0 15.1503 0 9.76C0 4.3697 4.3697 0 9.76 0Z" fill-rule="nonzero" transform="matrix(1 0 0 1 362.24 362.24)" fill="rgb(65, 154, 91)"/>
		<path d="M9.76 0C15.1503 0 19.52 4.3697 19.52 9.76C19.52 15.1503 15.1503 19.52 9.76 19.52C4.3697 19.52 0 15.1503 0 9.76C0 4.3697 4.3697 0 9.76 0Z" fill-rule="nonzero" transform="matrix(1 0 0 1 362.24 118.24)" fill="rgb(65, 154, 91)"/>
		<path d="M9.76 0C15.1503 0 19.52 4.3697 19.52 9.76C19.52 15.1503 15.1503 19.52 9.76 19.52C4.3697 19.52 0 15.1503 0 9.76C0 4.3697 4.3697 0 9.76 0Z" fill-rule="nonzero" transform="matrix(1 0 0 1 118.24 362.24)" fill="rgb(65, 154, 91)"/>
	</g>
</svg>
